<?xml version="1.0" encoding="UTF-8" standalone="no"?>
<!DOCTYPE svg PUBLIC "-//W3C//DTD SVG 1.1//EN"
 "http://www.w3.org/Graphics/SVG/1.1/DTD/svg11.dtd">
<!-- Generated by graphviz version 2.38.0 (20140413.2041)
 -->
<!-- Title: %3 Pages: 1 -->
<svg width="415pt" height="461pt"
  xmlns="http://www.w3.org/2000/svg" xmlns:xlink="http://www.w3.org/1999/xlink">
<g id="graph0" class="graph" transform="scale(1.38889 1.38889) rotate(0) translate(4 328)">
<title>%3</title>
<polygon fill="white" stroke="none" points="-4,4 -4,-328 294.536,-328 294.536,4 -4,4"/>
<!-- Robin Lopez -->
<g id="node1" class="node"><title>Robin Lopez</title>
<ellipse fill="none" stroke="black" cx="193.939" cy="-234" rx="56.0683" ry="18"/>
<text text-anchor="middle" x="193.939" y="-229.8" font-family="Times,serif" font-size="14.00">Robin Lopez</text>
</g>
<!-- Anna Young -->
<g id="node6" class="node"><title>Anna Young</title>
<ellipse fill="none" stroke="black" cx="193.939" cy="-162" rx="54.1833" ry="18"/>
<text text-anchor="middle" x="193.939" y="-157.8" font-family="Times,serif" font-size="14.00">Anna Young</text>
</g>
<!-- Robin Lopez&#45;&#45;Anna Young -->
<g id="edge9" class="edge"><title>Robin Lopez&#45;&#45;Anna Young</title>
<path fill="none" stroke="orange" stroke-width="3" d="M193.939,-215.697C193.939,-204.846 193.939,-190.917 193.939,-180.104"/>
</g>
<!-- Evelyn Kelley -->
<g id="node7" class="node"><title>Evelyn Kelley</title>
<ellipse fill="none" stroke="black" cx="60.9395" cy="-162" rx="60.879" ry="18"/>
<text text-anchor="middle" x="60.9395" y="-157.8" font-family="Times,serif" font-size="14.00">Evelyn Kelley</text>
</g>
<!-- Robin Lopez&#45;&#45;Evelyn Kelley -->
<g id="edge11" class="edge"><title>Robin Lopez&#45;&#45;Evelyn Kelley</title>
<path fill="none" stroke="yellow" stroke-width="3" d="M166.058,-218.326C143.664,-206.539 112.328,-190.046 89.7025,-178.138"/>
</g>
<!-- Lori Sanchez -->
<g id="node2" class="node"><title>Lori Sanchez</title>
<ellipse fill="none" stroke="black" cx="63.9395" cy="-18" rx="57.0114" ry="18"/>
<text text-anchor="middle" x="63.9395" y="-13.8" font-family="Times,serif" font-size="14.00">Lori Sanchez</text>
</g>
<!-- Liv Nelson -->
<g id="node3" class="node"><title>Liv Nelson</title>
<ellipse fill="none" stroke="black" cx="63.9395" cy="-90" rx="49.8044" ry="18"/>
<text text-anchor="middle" x="63.9395" y="-85.8" font-family="Times,serif" font-size="14.00">Liv Nelson</text>
</g>
<!-- Lori Sanchez&#45;&#45;Liv Nelson -->
<g id="edge3" class="edge"><title>Lori Sanchez&#45;&#45;Liv Nelson</title>
<path fill="none" stroke="red" stroke-width="3" d="M69.8523,-36.2753C70.9799,-47.183 70.9684,-61.2111 69.8177,-72.055"/>
</g>
<!-- Liv Nelson&#45;&#45;Lori Sanchez -->
<g id="edge2" class="edge"><title>Liv Nelson&#45;&#45;Lori Sanchez</title>
<path fill="none" stroke="black" stroke-width="3" d="M58.0612,-72.055C56.9105,-61.2111 56.899,-47.183 58.0267,-36.2753"/>
</g>
<!-- Betty Price -->
<g id="node4" class="node"><title>Betty Price</title>
<ellipse fill="none" stroke="black" cx="237.939" cy="-18" rx="49.7957" ry="18"/>
<text text-anchor="middle" x="237.939" y="-13.8" font-family="Times,serif" font-size="14.00">Betty Price</text>
</g>
<!-- Steven Bryant -->
<g id="node5" class="node"><title>Steven Bryant</title>
<ellipse fill="none" stroke="black" cx="193.939" cy="-90" rx="60.4117" ry="18"/>
<text text-anchor="middle" x="193.939" y="-85.8" font-family="Times,serif" font-size="14.00">Steven Bryant</text>
</g>
<!-- Steven Bryant&#45;&#45;Betty Price -->
<g id="edge6" class="edge"><title>Steven Bryant&#45;&#45;Betty Price</title>
<path fill="none" stroke="orange" stroke-width="3" d="M204.591,-72.055C211.509,-61.0492 220.488,-46.7636 227.386,-35.789"/>
</g>
<!-- Steven Bryant&#45;&#45;Anna Young -->
<g id="edge10" class="edge"><title>Steven Bryant&#45;&#45;Anna Young</title>
<path fill="none" stroke="red" stroke-width="3" d="M199.852,-108.275C200.98,-119.183 200.968,-133.211 199.818,-144.055"/>
</g>
<!-- Anna Young&#45;&#45;Liv Nelson -->
<g id="edge5" class="edge"><title>Anna Young&#45;&#45;Liv Nelson</title>
<path fill="none" stroke="yellow" stroke-width="3" d="M166.687,-146.326C144.351,-134.299 112.915,-117.371 90.7106,-105.415"/>
</g>
<!-- Anna Young&#45;&#45;Steven Bryant -->
<g id="edge8" class="edge"><title>Anna Young&#45;&#45;Steven Bryant</title>
<path fill="none" stroke="orange" stroke-width="3" d="M188.061,-144.055C186.911,-133.211 186.899,-119.183 188.027,-108.275"/>
</g>
<!-- Evelyn Kelley&#45;&#45;Liv Nelson -->
<g id="edge4" class="edge"><title>Evelyn Kelley&#45;&#45;Liv Nelson</title>
<path fill="none" stroke="black" stroke-width="3" d="M61.6811,-143.697C62.1461,-132.846 62.743,-118.917 63.2064,-108.104"/>
</g>
<!-- Julie Moore -->
<g id="node8" class="node"><title>Julie Moore</title>
<ellipse fill="none" stroke="black" cx="237.939" cy="-306" rx="52.694" ry="18"/>
<text text-anchor="middle" x="237.939" y="-301.8" font-family="Times,serif" font-size="14.00">Julie Moore</text>
</g>
<!-- Julie Moore&#45;&#45;Robin Lopez -->
<g id="edge1" class="edge"><title>Julie Moore&#45;&#45;Robin Lopez</title>
<path fill="none" stroke="orange" stroke-width="3" d="M227.288,-288.055C220.37,-277.049 211.391,-262.764 204.493,-251.789"/>
</g>
<!-- Julie Moore&#45;&#45;Betty Price -->
<g id="edge7" class="edge"><title>Julie Moore&#45;&#45;Betty Price</title>
<path fill="none" stroke="black" stroke-width="3" d="M246.528,-287.807C251.141,-277.66 256.391,-264.41 258.939,-252 275.034,-173.615 280.431,-150.085 262.939,-72 260.093,-59.2926 253.843,-46.0426 248.305,-35.9695"/>
</g>
</g>
</svg>
